<!-- Generated by IcoMoon.io -->
<svg version="1.1" xmlns="http://www.w3.org/2000/svg" width="26" height="32" viewBox="0 0 26 32">
<title>fire-hydrant</title>
<path d="M18.052 23.492c0 0.38-0.309 0.689-0.689 0.689h-9.126c-0.38 0-0.689-0.309-0.689-0.689v0c0-0.38 0.308-0.689 0.689-0.689h9.126c0.381-0 0.689 0.308 0.689 0.689v0zM17.517 9.623c0 0.347-0.282 0.629-0.629 0.629h-8.176c-0.347 0-0.629-0.282-0.629-0.629v-2.044c0-0.347 0.282-0.629 0.629-0.629h8.176c0.347 0 0.629 0.282 0.629 0.629v2.044zM13.383 2.61v-0.779c0-0.227-0.261-0.412-0.583-0.412s-0.584 0.184-0.584 0.412v0.779c-1.845 0.282-3.26 1.871-3.26 3.795h7.688c0-1.924-1.416-3.513-3.261-3.795zM8.411 17.925h-1.604c-0.237 0-0.43-0.192-0.43-0.43v-3.581c0-0.237 0.193-0.43 0.43-0.43h1.604v4.441zM17.189 17.925h1.604c0.237 0 0.43-0.192 0.43-0.43v-3.581c0-0.237-0.193-0.43-0.43-0.43h-1.604v4.441zM8.956 10.797v11.461h7.688v-11.461h-7.688zM12.8 17.925c-1.226 0-2.22-0.994-2.22-2.22s0.994-2.22 2.22-2.22c1.226 0 2.22 0.994 2.22 2.22s-0.994 2.22-2.22 2.22zM14.309 15.704c0 0.833-0.676 1.509-1.509 1.509s-1.509-0.676-1.509-1.509c0-0.833 0.676-1.509 1.509-1.509s1.509 0.676 1.509 1.509zM4.264 14.717h1.569v1.974h-1.569v-1.974zM19.767 14.717h1.569v1.974h-1.569v-1.974z"></path>
</svg>
