<svg height="512pt" viewBox="-46 0 512 512" width="512pt" xmlns="http://www.w3.org/2000/svg"><path d="m409.734375 287.128906h-30v-32c0-5.523437-4.476563-10-10-10h-38.1875v-53.128906h16.257813c5.523437 0 10-4.476562 10-10v-40c0-5.523438-4.476563-10-10-10h-16.355469c-4.835938-59.304688-52.257813-106.738281-111.554688-111.585938v-10.414062c0-5.523438-4.476562-10-10-10-5.523437 0-10 4.476562-10 10v10.410156c-59.320312 4.824219-106.773437 52.269532-111.605469 111.589844h-16.359374c-5.523438 0-10 4.476562-10 10v40c0 5.523438 4.476562 10 10 10h16.257812v53.128906h-38.1875c-5.523438 0-10 4.476563-10 10v32h-30c-5.523438 0-10 4.476563-10 10v44c0 5.519532 4.476562 10 10 10h30v32c0 5.519532 4.476562 10 10 10h38.1875v58.871094h-20.320312c-5.523438 0-10 4.476562-10 10v40c0 5.523438 4.476562 10 10 10h284c5.523437 0 10-4.476562 10-10v-40c0-5.523438-4.476563-10-10-10h-20.320313v-58.871094h38.1875c5.523437 0 10-4.480468 10-10v-32h30c5.523437 0 10-4.480468 10-10v-44c0-5.523437-4.476563-10-10-10zm-327.804687-135.128906h83.09375c5.523437 0 10-4.476562 10-10s-4.476563-10-10-10h-56.65625c5.039062-51.566406 48.636718-92 101.503906-92 52.863281 0 96.457031 40.433594 101.5 92h-56.347656c-5.523438 0-10 4.476562-10 10s4.476562 10 10 10h82.78125v20h-255.875zm-61.929688 179.128906v-24h20v24zm40 42v-108h28.1875v108zm281.867188 118.871094h-264v-20h264zm-233.679688-40v-260h203.359375v260zm251.546875-78.871094h-28.1875v-108h28.1875zm40-42h-20v-24h20zm0 0"/><path d="m209.867188 245.128906c-40.804688 0-74 33.195313-74 74 0 40.800782 33.195312 74 74 74 40.804687 0 74-33.199218 74-74 0-40.804687-33.195313-74-74-74zm0 128c-29.773438 0-54-24.226562-54-54 0-29.777344 24.226562-54 54-54 29.777343 0 54 24.222656 54 54 0 29.773438-24.222657 54-54 54zm0 0"/><path d="m209.867188 285.128906c-18.746094 0-34 15.25-34 34 0 18.746094 15.253906 34 34 34 18.75 0 34-15.253906 34-34 0-18.75-15.253907-34-34-34zm0 48c-7.71875 0-14-6.28125-14-14 0-7.722656 6.28125-14 14-14 7.722656 0 14 6.277344 14 14 0 7.71875-6.28125 14-14 14zm0 0"/><path d="m209.875 152c2.628906 0 5.210938-1.070312 7.070312-2.929688 1.859376-1.859374 2.929688-4.441406 2.929688-7.070312s-1.070312-5.210938-2.929688-7.070312c-1.859374-1.859376-4.441406-2.929688-7.070312-2.929688-2.640625 0-5.210938 1.070312-7.070312 2.929688-1.871094 1.859374-2.929688 4.441406-2.929688 7.070312s1.058594 5.210938 2.929688 7.070312c1.859374 1.859376 4.429687 2.929688 7.070312 2.929688zm0 0"/></svg>